<svg xmlns="http://www.w3.org/2000/svg" viewBox="0 0 128 128" fill="none" role="img" aria-label="Super Browser Agent">
  <defs>
    <linearGradient id="bg" x1="20" y1="12" x2="108" y2="116" gradientUnits="userSpaceOnUse">
      <stop stop-color="#27272a"/>
      <stop offset="1" stop-color="#18181b"/>
    </linearGradient>
    <linearGradient id="browser" x1="24" y1="78" x2="104" y2="112" gradientUnits="userSpaceOnUse">
      <stop stop-color="#fafafa" stop-opacity="0.18"/>
      <stop offset="1" stop-color="#fafafa" stop-opacity="0.06"/>
    </linearGradient>
  </defs>
  <rect width="128" height="128" rx="28" fill="url(#bg)"/>
  <rect x="1" y="1" width="126" height="126" rx="27" stroke="#52525b" stroke-width="1" opacity="0.55"/>
  <!-- DAG fan-out -->
  <path stroke="#fafafa" stroke-width="4.5" stroke-linecap="round" stroke-linejoin="round" opacity="0.35" d="M36 34 64 50M92 34 64 50"/>
  <path stroke="#fafafa" stroke-width="4.5" stroke-linecap="round" stroke-linejoin="round" d="M64 56 64 72"/>
  <circle cx="36" cy="30" r="8" fill="#fafafa" opacity="0.72"/>
  <circle cx="92" cy="30" r="8" fill="#fafafa" opacity="0.72"/>
  <circle cx="64" cy="22" r="8" fill="#fafafa"/>
  <circle cx="64" cy="50" r="9" fill="#fafafa" opacity="0.9"/>
  <circle cx="64" cy="50" r="3.5" fill="#18181b"/>
  <!-- Browser window + set-of-marks -->
  <rect x="22" y="76" width="84" height="36" rx="8" fill="url(#browser)" stroke="#a1a1aa" stroke-width="1.5"/>
  <rect x="22" y="76" width="84" height="10" rx="8" fill="#fafafa" fill-opacity="0.12"/>
  <circle cx="30" cy="81" r="2" fill="#f87171"/>
  <circle cx="38" cy="81" r="2" fill="#fbbf24"/>
  <circle cx="46" cy="81" r="2" fill="#4ade80"/>
  <rect x="30" y="92" width="18" height="12" rx="2" stroke="#f87171" stroke-width="1.5" fill="none"/>
  <text x="33" y="101" fill="#fafafa" font-family="ui-sans-serif,system-ui,sans-serif" font-size="7" font-weight="700">1</text>
  <rect x="54" y="90" width="22" height="14" rx="2" stroke="#f87171" stroke-width="1.5" fill="none"/>
  <text x="57" y="100" fill="#fafafa" font-family="ui-sans-serif,system-ui,sans-serif" font-size="7" font-weight="700">2</text>
  <rect x="82" y="94" width="16" height="10" rx="2" stroke="#f87171" stroke-width="1.5" fill="none"/>
  <text x="85" y="102" fill="#fafafa" font-family="ui-sans-serif,system-ui,sans-serif" font-size="7" font-weight="700">3</text>
</svg>
